<?xml version="1.0" ?><!DOCTYPE svg  PUBLIC '-//W3C//DTD SVG 1.1//EN'  'http://www.w3.org/Graphics/SVG/1.1/DTD/svg11.dtd'><svg enable-background="new 0 0 128 128" id="Слой_1" version="1.1" viewBox="0 0 128 128" xml:space="preserve" xmlns="http://www.w3.org/2000/svg" xmlns:xlink="http://www.w3.org/1999/xlink"><circle cx="64" cy="64" fill="#F0F1EE" r="62"/><g><g><path d="M86.8,102.9H41.2c-3.2,0-6,2-7.1,5l-3.1,8.5c9.6,6.1,20.9,9.6,33.1,9.6s23.5-3.5,33.1-9.6l-3.1-8.5    C92.9,104.9,90,102.9,86.8,102.9z" fill="#D1D2CD"/></g><path d="M87.6,117.7c0-2.7-2.9-5.1-7.2-6.5c-2.3-0.7-16.4,9.9-16.4,14.1h8.4c0.4,0,0.7,0,1.1,0   c3.5-0.5,6.9-1.4,10.1-2.5C86.1,121.5,87.6,119.7,87.6,117.7z" fill="#502D4B" opacity="0.2"/><g><path d="M86.8,101.7H41.2c-3.7,0-7,2.3-8.3,5.8l-3.1,8.2c0.7,0.5,1.4,0.9,2.2,1.4l3.2-8.8c0.9-2.5,3.3-4.1,6-4.1    h45.7c2.6,0,5,1.7,6,4.1l3.2,8.8c0.7-0.4,1.4-0.9,2.2-1.4l-3.1-8.2C93.9,104,90.5,101.7,86.8,101.7z" fill="#502D4B"/></g><g><path d="M64,24c-21.4,0-38.8,17.4-38.8,38.8c0,0.7,0,1.4,0.1,2c1.1,21.8,18.8,47.7,36.2,58.5    c0.8,0.5,1.7,0.7,2.6,0.7c0.9,0,1.7-0.2,2.5-0.7c17.4-10.7,35.1-36.7,36.2-58.5c0-0.7,0.1-1.3,0.1-2C102.8,41.4,85.4,24,64,24z" fill="#F9E373"/></g><path d="M64,24c-1.1,0-2.3,0.1-3.4,0.2C80.4,25.9,96,42.5,96,62.8c0,0.7,0,1.3-0.1,2   c-1,21.4-18.2,46.9-35.3,57.9c0.3,0.2,0.6,0.4,0.9,0.6c0.8,0.5,1.7,0.7,2.6,0.7c0.9,0,1.7-0.2,2.5-0.7   c17.4-10.7,35.1-36.7,36.2-58.5c0-0.7,0.1-1.3,0.1-2C102.8,41.4,85.4,24,64,24z" fill="#502D4B" opacity="0.2"/><g><path d="M64,22.8c-22.1,0-40,18-40,40c0,0.7,0,1.4,0.1,2.1c1.1,23.4,20,49.1,36.8,59.5c0.9,0.6,2,0.9,3.2,0.9    c0,0,0.1,0,0.1,0c1.1,0,2.2-0.3,3.1-0.9C84,114,102.9,88.3,104,64.9c0-0.7,0.1-1.4,0.1-2.1C104,40.7,86.1,22.8,64,22.8z     M101.5,64.7c-1.1,21.9-19.3,47.4-35.6,57.5c-0.5,0.3-1.2,0.5-1.8,0.5l0,1.3v-1.2c-0.7,0-1.3-0.2-1.9-0.5    c-16.3-10.1-34.5-35.6-35.6-57.5c0-0.6,0-1.3,0-2c0-20.7,16.8-37.5,37.5-37.5s37.5,16.8,37.5,37.5    C101.5,63.4,101.5,64.1,101.5,64.7z" fill="#502D4B"/></g><g><circle cx="64" cy="62.8" fill="#FFFFFF" r="30.6"/></g><g><path d="M83.2,56.1H71.5c-0.4,0-0.8-0.4-0.8-0.8V43.6c0-0.4-0.4-0.8-0.8-0.8H58.1c-0.4,0-0.8,0.4-0.8,0.8v11.7    c0,0.4-0.4,0.8-0.8,0.8H44.8c-0.4,0-0.8,0.4-0.8,0.8v11.7c0,0.4,0.4,0.8,0.8,0.8h11.7c0.4,0,0.8,0.4,0.8,0.8V82    c0,0.4,0.4,0.8,0.8,0.8h11.7c0.4,0,0.8-0.4,0.8-0.8V70.3c0-0.4,0.4-0.8,0.8-0.8h11.7c0.4,0,0.8-0.4,0.8-0.8V56.9    C84,56.5,83.6,56.1,83.2,56.1z" fill="#E074A3"/></g><g><path d="M83.2,54.9H71.9V43.6c0-1.1-0.9-2-2.1-2H58.1c-1.1,0-2.1,0.9-2.1,2v11.3H44.8c-1.1,0-2,0.9-2,2.1v11.7    c0,1.1,0.9,2,2,2h11.3V82c0,1.1,0.9,2.1,2.1,2.1h11.7c1.1,0,2.1-0.9,2.1-2.1V70.7h11.3c1.1,0,2-0.9,2-2V56.9    C85.2,55.8,84.3,54.9,83.2,54.9z M82.8,68.2H71.5c-1.1,0-2,0.9-2,2.1v11.3H58.6V70.3c0-1.1-0.9-2.1-2-2.1H45.2V57.4h11.3    c1.1,0,2-0.9,2-2V44h10.8v11.3c0,1.1,0.9,2,2,2h11.3V68.2z" fill="#502D4B"/></g><g><path d="M64,30.9c-17.6,0-31.9,14.3-31.9,31.9S46.4,94.7,64,94.7s31.9-14.3,31.9-31.9S81.6,30.9,64,30.9z M64,92.2    c-16.2,0-29.4-13.2-29.4-29.4S47.8,33.4,64,33.4s29.4,13.2,29.4,29.4S80.2,92.2,64,92.2z" fill="#502D4B"/></g></g></svg>